<?xml version="1.0" encoding="UTF-8" standalone="no"?>
<!DOCTYPE svg PUBLIC "-//W3C//DTD SVG 1.1//EN"
 "http://www.w3.org/Graphics/SVG/1.1/DTD/svg11.dtd">
<!-- Generated by graphviz version 5.0.1 (20220820.1526)
 -->
<!-- Title: G Pages: 1 -->
<svg width="1072pt" height="1031pt"
 viewBox="0.00 0.00 1071.99 1031.42" xmlns="http://www.w3.org/2000/svg" xmlns:xlink="http://www.w3.org/1999/xlink">
<g id="graph0" class="graph" transform="scale(1 1) rotate(0) translate(4 1027.42)">
<title>G</title><style>.edge>path:hover{stroke-width:8}</style>
<polygon fill="white" stroke="none" points="-4,4 -4,-1027.42 1067.99,-1027.42 1067.99,4 -4,4"/>
<!-- Configs -->
<g id="node1" class="node">
<title>Configs</title><style>.edge>path:hover{stroke-width:8}</style>
<ellipse fill="#f31616" stroke="black" cx="358.37" cy="-723.47" rx="31.4" ry="18"/>
<text text-anchor="middle" x="358.37" y="-720.97" font-family="Helvetica,sans-Serif" font-size="10.00" fill="#ffffff">Configs</text>
</g>
<!-- Fnx_QMake -->
<g id="node6" class="node">
<title>Fnx_QMake</title><style>.edge>path:hover{stroke-width:8}</style>
<ellipse fill="#799310" stroke="black" cx="678.37" cy="-576.26" rx="41.59" ry="18"/>
<text text-anchor="middle" x="678.37" y="-573.76" font-family="Helvetica,sans-Serif" font-size="10.00" fill="#ffffff">Fnx.QMake</text>
</g>
<!-- Configs&#45;&gt;Fnx_QMake -->
<g id="edge1" class="edge">
<title>Configs&#45;&gt;Fnx_QMake</title><style>.edge>path:hover{stroke-width:8}</style>
<path fill="none" stroke="black" d="M382.16,-711.67C437.38,-686.61 574.6,-624.34 641.08,-594.17"/>
<polygon fill="#f31616" stroke="black" points="642.7,-597.28 650.36,-589.96 639.81,-590.91 642.7,-597.28"/>
</g>
<!-- QLib_QBases_QLayout -->
<g id="node12" class="node">
<title>QLib_QBases_QLayout</title><style>.edge>path:hover{stroke-width:8}</style>
<ellipse fill="#345079" stroke="black" cx="482.37" cy="-359.07" rx="40.11" ry="28.98"/>
<text text-anchor="middle" x="482.37" y="-367.57" font-family="Helvetica,sans-Serif" font-size="10.00" fill="#ffffff">QLib.</text>
<text text-anchor="middle" x="482.37" y="-356.57" font-family="Helvetica,sans-Serif" font-size="10.00" fill="#ffffff">QBases.</text>
<text text-anchor="middle" x="482.37" y="-345.57" font-family="Helvetica,sans-Serif" font-size="10.00" fill="#ffffff">QLayout</text>
</g>
<!-- Configs&#45;&gt;QLib_QBases_QLayout -->
<g id="edge2" class="edge">
<title>Configs&#45;&gt;QLib_QBases_QLayout</title><style>.edge>path:hover{stroke-width:8}</style>
<path fill="none" stroke="black" d="M82.37,-650.47C75.64,-588.16 305.79,-629.98 359.37,-597.47 399.6,-573.05 494.6,-470.51 482.37,-425.06"/>
<path fill="none" stroke="black" d="M482.37,-424.06C479.79,-415.93 478.77,-406.92 478.59,-398.29"/>
<polygon fill="#f31616" stroke="black" points="482.09,-398.08 478.74,-388.03 475.09,-397.98 482.09,-398.08"/>
</g>
<!-- QLib_QBases_QWidget -->
<g id="node13" class="node">
<title>QLib_QBases_QWidget</title><style>.edge>path:hover{stroke-width:8}</style>
<ellipse fill="#2e466b" stroke="black" cx="720.37" cy="-265.09" rx="41.94" ry="28.98"/>
<text text-anchor="middle" x="720.37" y="-273.59" font-family="Helvetica,sans-Serif" font-size="10.00" fill="#ffffff">QLib.</text>
<text text-anchor="middle" x="720.37" y="-262.59" font-family="Helvetica,sans-Serif" font-size="10.00" fill="#ffffff">QBases.</text>
<text text-anchor="middle" x="720.37" y="-251.59" font-family="Helvetica,sans-Serif" font-size="10.00" fill="#ffffff">QWidget</text>
</g>
<!-- Configs&#45;&gt;QLib_QBases_QWidget -->
<g id="edge3" class="edge">
<title>Configs&#45;&gt;QLib_QBases_QWidget</title><style>.edge>path:hover{stroke-width:8}</style>
<path fill="none" stroke="black" d="M327.39,-721.07C256.38,-717 87.52,-702.13 82.37,-652.47"/>
<path fill="none" stroke="black" d="M82.37,-650.47C72.02,-550.82 109.49,-521.5 82.37,-425.06"/>
<path fill="none" stroke="black" d="M82.37,-424.06C66.76,-381.29 -13.05,-402.91 2.37,-360.07"/>
</g>
<!-- QLib_QElements_QApplication -->
<g id="node15" class="node">
<title>QLib_QElements_QApplication</title><style>.edge>path:hover{stroke-width:8}</style>
<ellipse fill="#375481" stroke="black" cx="596.37" cy="-359.07" rx="55.72" ry="28.98"/>
<text text-anchor="middle" x="596.37" y="-367.57" font-family="Helvetica,sans-Serif" font-size="10.00" fill="#ffffff">QLib.</text>
<text text-anchor="middle" x="596.37" y="-356.57" font-family="Helvetica,sans-Serif" font-size="10.00" fill="#ffffff">QElements.</text>
<text text-anchor="middle" x="596.37" y="-345.57" font-family="Helvetica,sans-Serif" font-size="10.00" fill="#ffffff">QApplication</text>
</g>
<!-- Configs&#45;&gt;QLib_QElements_QApplication -->
<g id="edge4" class="edge">
<title>Configs&#45;&gt;QLib_QElements_QApplication</title><style>.edge>path:hover{stroke-width:8}</style>
<path fill="none" stroke="black" d="M368.9,-706.43C404.8,-651.76 522.95,-471.85 573.31,-395.18"/>
<polygon fill="#f31616" stroke="black" points="576.25,-397.07 578.82,-386.79 570.4,-393.23 576.25,-397.07"/>
</g>
<!-- QLib_QElements_QTree -->
<g id="node16" class="node">
<title>QLib_QElements_QTree</title><style>.edge>path:hover{stroke-width:8}</style>
<ellipse fill="#314b72" stroke="black" cx="82.37" cy="-359.07" rx="51.74" ry="28.98"/>
<text text-anchor="middle" x="82.37" y="-367.57" font-family="Helvetica,sans-Serif" font-size="10.00" fill="#ffffff">QLib.</text>
<text text-anchor="middle" x="82.37" y="-356.57" font-family="Helvetica,sans-Serif" font-size="10.00" fill="#ffffff">QElements.</text>
<text text-anchor="middle" x="82.37" y="-345.57" font-family="Helvetica,sans-Serif" font-size="10.00" fill="#ffffff">QTree</text>
</g>
<!-- Configs&#45;&gt;QLib_QElements_QTree -->
<g id="edge5" class="edge">
<title>Configs&#45;&gt;QLib_QElements_QTree</title><style>.edge>path:hover{stroke-width:8}</style>
<path fill="none" stroke="black" d="M82.37,-424.06C80.08,-415.93 79.15,-406.97 78.97,-398.41"/>
<polygon fill="#f31616" stroke="black" points="82.48,-398.28 79.1,-388.24 75.48,-398.2 82.48,-398.28"/>
</g>
<!-- Configs_Config -->
<g id="node2" class="node">
<title>Configs_Config</title><style>.edge>path:hover{stroke-width:8}</style>
<ellipse fill="#dd1818" stroke="black" cx="1013.37" cy="-723.47" rx="50.75" ry="18"/>
<text text-anchor="middle" x="1013.37" y="-720.97" font-family="Helvetica,sans-Serif" font-size="10.00" fill="#ffffff">Configs.Config</text>
</g>
<!-- Configs_Config&#45;&gt;Fnx_QMake -->
<g id="edge6" class="edge">
<title>Configs_Config&#45;&gt;Fnx_QMake</title><style>.edge>path:hover{stroke-width:8}</style>
<path fill="none" stroke="black" d="M988.46,-707.51C965.43,-693.56 930.32,-672.02 900.37,-652.47"/>
<path fill="none" stroke="black" d="M900.37,-650.47C889.42,-643.33 888.23,-638.95 876.37,-633.47 817.25,-606.19 796.62,-616.55 734.37,-597.47 729.12,-595.86 723.63,-594.05 718.24,-592.19"/>
<polygon fill="#dd1818" stroke="black" points="719.3,-588.85 708.7,-588.82 716.96,-595.45 719.3,-588.85"/>
</g>
<!-- Configs_Config&#45;&gt;QLib_QBases_QLayout -->
<g id="edge7" class="edge">
<title>Configs_Config&#45;&gt;QLib_QBases_QLayout</title><style>.edge>path:hover{stroke-width:8}</style>
<path fill="none" stroke="black" d="M900.37,-650.47C866.09,-628.39 799.61,-549.37 772.37,-519.04 750.01,-494.16 750.67,-481.74 724.37,-461.06 694.83,-437.84 683.31,-437.85 648.37,-424.06 597.76,-404.09 581.29,-409.69 531.37,-388.06 528.12,-386.66 524.82,-385.09 521.54,-383.44"/>
<polygon fill="#dd1818" stroke="black" points="522.89,-380.19 512.41,-378.61 519.61,-386.38 522.89,-380.19"/>
</g>
<!-- Configs_Config&#45;&gt;QLib_QBases_QWidget -->
<g id="edge8" class="edge">
<title>Configs_Config&#45;&gt;QLib_QBases_QWidget</title><style>.edge>path:hover{stroke-width:8}</style>
<path fill="none" stroke="black" d="M900.37,-489.05C875.56,-405.6 800.56,-332.06 755.58,-293.87"/>
<polygon fill="#dd1818" stroke="black" points="757.73,-291.11 747.82,-287.38 753.24,-296.48 757.73,-291.11"/>
</g>
<!-- Configs_Config&#45;&gt;QLib_QElements_QApplication -->
<g id="edge9" class="edge">
<title>Configs_Config&#45;&gt;QLib_QElements_QApplication</title><style>.edge>path:hover{stroke-width:8}</style>
<path fill="none" stroke="black" d="M900.37,-650.47C841.03,-611.74 925.2,-557.41 900.37,-491.05"/>
<path fill="none" stroke="black" d="M900.37,-489.05C883.81,-433.36 834.54,-457.55 786.37,-425.06"/>
</g>
<!-- Configs_Config&#45;&gt;QLib_QElements_QTree -->
<g id="edge10" class="edge">
<title>Configs_Config&#45;&gt;QLib_QElements_QTree</title><style>.edge>path:hover{stroke-width:8}</style>
<path fill="none" stroke="black" d="M900.37,-650.47C889.37,-643.4 887.63,-640.1 876.37,-633.47 844.5,-614.72 831.44,-618.99 801.37,-597.47 761.64,-569.05 755.01,-557.08 724.37,-519.04 705.04,-495.05 712.17,-477.9 686.37,-461.06 663.57,-446.18 290.56,-390.46 142.37,-368.78"/>
<polygon fill="#dd1818" stroke="black" points="142.5,-365.26 132.1,-367.28 141.49,-372.19 142.5,-365.26"/>
</g>
<!-- Configs_QDefaults -->
<g id="node3" class="node">
<title>Configs_QDefaults</title><style>.edge>path:hover{stroke-width:8}</style>
<ellipse fill="#ce3b3b" stroke="black" cx="194.37" cy="-576.26" rx="45.92" ry="21.43"/>
<text text-anchor="middle" x="194.37" y="-579.26" font-family="Helvetica,sans-Serif" font-size="10.00" fill="#ffffff">Configs.</text>
<text text-anchor="middle" x="194.37" y="-568.26" font-family="Helvetica,sans-Serif" font-size="10.00" fill="#ffffff">QDefaults</text>
</g>
<!-- Configs_QDefaults&#45;&gt;QLib_QBases_QLayout -->
<g id="edge11" class="edge">
<title>Configs_QDefaults&#45;&gt;QLib_QBases_QLayout</title><style>.edge>path:hover{stroke-width:8}</style>
<path fill="none" stroke="black" d="M207.46,-555.85C230.24,-523.6 280.31,-459.06 338.37,-424.06 369.94,-405.03 408.18,-388.3 437.31,-376.72"/>
<polygon fill="#ce3b3b" stroke="black" points="438.79,-379.91 446.82,-373 436.23,-373.39 438.79,-379.91"/>
</g>
<!-- Configs_QDefaults&#45;&gt;QLib_QBases_QWidget -->
<g id="edge12" class="edge">
<title>Configs_QDefaults&#45;&gt;QLib_QBases_QWidget</title><style>.edge>path:hover{stroke-width:8}</style>
<path fill="none" stroke="black" d="M158.37,-489.05C142.71,-400.46 246.41,-419.02 314.37,-360.07"/>
<path fill="none" stroke="black" d="M314.37,-358.07C368.72,-314.1 572.76,-284.06 669.23,-272"/>
<polygon fill="#ce3b3b" stroke="black" points="669.84,-275.45 679.34,-270.76 668.98,-268.51 669.84,-275.45"/>
</g>
<!-- Configs_QDefaults&#45;&gt;QLib_QElements_QTree -->
<g id="edge13" class="edge">
<title>Configs_QDefaults&#45;&gt;QLib_QElements_QTree</title><style>.edge>path:hover{stroke-width:8}</style>
<path fill="none" stroke="black" d="M182.92,-555.65C174.01,-539.08 162.49,-514.38 158.37,-491.05"/>
<path fill="none" stroke="black" d="M158.37,-489.05C152.69,-456.92 135.11,-455.1 122.37,-425.06"/>
</g>
<!-- Configs_mappings -->
<g id="node4" class="node">
<title>Configs_mappings</title><style>.edge>path:hover{stroke-width:8}</style>
<ellipse fill="#b65353" stroke="black" cx="1013.37" cy="-806.46" rx="45.92" ry="21.43"/>
<text text-anchor="middle" x="1013.37" y="-809.46" font-family="Helvetica,sans-Serif" font-size="10.00" fill="#ffffff">Configs.</text>
<text text-anchor="middle" x="1013.37" y="-798.46" font-family="Helvetica,sans-Serif" font-size="10.00" fill="#ffffff">mappings</text>
</g>
<!-- Configs_mappings&#45;&gt;Configs_Config -->
<g id="edge14" class="edge">
<title>Configs_mappings&#45;&gt;Configs_Config</title><style>.edge>path:hover{stroke-width:8}</style>
<path fill="none" stroke="black" d="M1013.37,-785.02C1013.37,-774.97 1013.37,-762.71 1013.37,-751.86"/>
<polygon fill="#b65353" stroke="black" points="1016.87,-751.62 1013.37,-741.62 1009.87,-751.62 1016.87,-751.62"/>
</g>
<!-- Fnx -->
<g id="node5" class="node">
<title>Fnx</title><style>.edge>path:hover{stroke-width:8}</style>
<ellipse fill="#cbf910" stroke="black" cx="323.37" cy="-576.26" rx="27" ry="18"/>
<text text-anchor="middle" x="323.37" y="-573.76" font-family="Helvetica,sans-Serif" font-size="10.00" fill="#000000">Fnx</text>
</g>
<!-- Projects_ACTIVE_myPyQt_QLib_QFrames_QElements -->
<g id="node9" class="node">
<title>Projects_ACTIVE_myPyQt_QLib_QFrames_QElements</title><style>.edge>path:hover{stroke-width:8}</style>
<ellipse fill="#378154" stroke="black" cx="790.37" cy="-44.55" rx="70.01" ry="44.6"/>
<text text-anchor="middle" x="790.37" y="-64.05" font-family="Helvetica,sans-Serif" font-size="10.00" fill="#ffffff">Projects_ACTIVE.</text>
<text text-anchor="middle" x="790.37" y="-53.05" font-family="Helvetica,sans-Serif" font-size="10.00" fill="#ffffff">myPyQt.</text>
<text text-anchor="middle" x="790.37" y="-42.05" font-family="Helvetica,sans-Serif" font-size="10.00" fill="#ffffff">QLib.</text>
<text text-anchor="middle" x="790.37" y="-31.05" font-family="Helvetica,sans-Serif" font-size="10.00" fill="#ffffff">QFrames.</text>
<text text-anchor="middle" x="790.37" y="-20.05" font-family="Helvetica,sans-Serif" font-size="10.00" fill="#ffffff">QElements</text>
</g>
<!-- Fnx&#45;&gt;Projects_ACTIVE_myPyQt_QLib_QFrames_QElements -->
<g id="edge15" class="edge">
<title>Fnx&#45;&gt;Projects_ACTIVE_myPyQt_QLib_QFrames_QElements</title><style>.edge>path:hover{stroke-width:8}</style>
<path fill="none" stroke="black" d="M162.37,-424.06C141.87,-395.56 134.13,-286.94 162.37,-266.09"/>
</g>
<!-- Fnx&#45;&gt;QLib_QBases_QLayout -->
<g id="edge16" class="edge">
<title>Fnx&#45;&gt;QLib_QBases_QLayout</title><style>.edge>path:hover{stroke-width:8}</style>
<path fill="none" stroke="black" d="M340.73,-562.45C354.42,-551.8 373.46,-535.75 387.37,-519.04 419.62,-480.31 447.99,-429.4 465.15,-395.76"/>
<polygon fill="#cbf910" stroke="black" points="468.31,-397.25 469.68,-386.75 462.06,-394.11 468.31,-397.25"/>
</g>
<!-- Fnx&#45;&gt;QLib_QBases_QWidget -->
<g id="edge17" class="edge">
<title>Fnx&#45;&gt;QLib_QBases_QWidget</title><style>.edge>path:hover{stroke-width:8}</style>
<path fill="none" stroke="black" d="M307.29,-561.75C290.79,-546.18 268.07,-519.1 272.37,-491.05"/>
</g>
<!-- Fnx&#45;&gt;QLib_QElements_QApplication -->
<g id="edge18" class="edge">
<title>Fnx&#45;&gt;QLib_QElements_QApplication</title><style>.edge>path:hover{stroke-width:8}</style>
<path fill="none" stroke="black" d="M344.44,-564.87C364.85,-554.42 396.31,-537.28 421.37,-519.04 475.21,-479.86 531.09,-426.5 564.8,-392.66"/>
<polygon fill="#cbf910" stroke="black" points="567.51,-394.9 572.06,-385.33 562.53,-389.97 567.51,-394.9"/>
</g>
<!-- Fnx&#45;&gt;QLib_QElements_QTree -->
<g id="edge19" class="edge">
<title>Fnx&#45;&gt;QLib_QElements_QTree</title><style>.edge>path:hover{stroke-width:8}</style>
<path fill="none" stroke="black" d="M304.17,-563.25C269.83,-540.69 198.14,-488.49 162.37,-425.06"/>
<path fill="none" stroke="black" d="M162.37,-424.06C152.22,-409.95 138.16,-397.29 124.66,-387.03"/>
<polygon fill="#cbf910" stroke="black" points="126.5,-384.03 116.36,-380.95 122.36,-389.68 126.5,-384.03"/>
</g>
<!-- Fnx_QMake&#45;&gt;Projects_ACTIVE_myPyQt_QLib_QFrames_QElements -->
<g id="edge20" class="edge">
<title>Fnx_QMake&#45;&gt;Projects_ACTIVE_myPyQt_QLib_QFrames_QElements</title><style>.edge>path:hover{stroke-width:8}</style>
<path fill="none" stroke="black" d="M719.08,-571.63C765.7,-564.89 838.69,-545.69 862.37,-491.05"/>
<path fill="none" stroke="black" d="M862.37,-489.05C903.77,-393.51 749.76,-361.98 790.37,-266.09"/>
</g>
<!-- Fnx_QMake&#45;&gt;QLib_QBases_QLayout -->
<g id="edge21" class="edge">
<title>Fnx_QMake&#45;&gt;QLib_QBases_QLayout</title><style>.edge>path:hover{stroke-width:8}</style>
<path fill="none" stroke="black" d="M675.37,-558.13C672.8,-541.09 669.89,-514.22 672.37,-491.05"/>
<path fill="none" stroke="black" d="M672.37,-489.05C673.33,-480.04 577.13,-418.8 521.26,-384.04"/>
<polygon fill="#799310" stroke="black" points="523.01,-381 512.66,-378.7 519.31,-386.95 523.01,-381"/>
</g>
<!-- Fnx_QMake&#45;&gt;QLib_QBases_QWidget -->
<g id="edge22" class="edge">
<title>Fnx_QMake&#45;&gt;QLib_QBases_QWidget</title><style>.edge>path:hover{stroke-width:8}</style>
<path fill="none" stroke="black" d="M672.37,-489.05C684.73,-426.66 766.93,-479.16 800.37,-425.06 810.67,-408.39 785.92,-405.18 776.37,-388.06 760.82,-360.22 745.9,-327.29 735.37,-302.67"/>
<polygon fill="#799310" stroke="black" points="738.54,-301.18 731.42,-293.34 732.09,-303.91 738.54,-301.18"/>
</g>
<!-- Fnx_QMake&#45;&gt;QLib_QElements_QApplication -->
<g id="edge23" class="edge">
<title>Fnx_QMake&#45;&gt;QLib_QElements_QApplication</title><style>.edge>path:hover{stroke-width:8}</style>
<path fill="none" stroke="black" d="M708.64,-563.8C736.79,-551.07 775.93,-527.39 786.37,-491.05"/>
<path fill="none" stroke="black" d="M786.37,-489.05C794.22,-461.72 809.95,-440.96 786.37,-425.06"/>
<path fill="none" stroke="black" d="M786.37,-424.06C747.82,-398.07 697.78,-381.78 658.72,-372.14"/>
<polygon fill="#799310" stroke="black" points="659.07,-368.63 648.54,-369.72 657.45,-375.44 659.07,-368.63"/>
</g>
<!-- Fnx_QMake&#45;&gt;QLib_QElements_QTree -->
<g id="edge24" class="edge">
<title>Fnx_QMake&#45;&gt;QLib_QElements_QTree</title><style>.edge>path:hover{stroke-width:8}</style>
<path fill="none" stroke="black" d="M654.51,-561.33C603.35,-531.99 478.58,-463.31 366.37,-424.06 290.87,-397.66 200.19,-379.44 141.94,-369.39"/>
<polygon fill="#799310" stroke="black" points="142.26,-365.89 131.81,-367.66 141.09,-372.79 142.26,-365.89"/>
</g>
<!-- Fnx_isTest -->
<g id="node7" class="node">
<title>Fnx_isTest</title><style>.edge>path:hover{stroke-width:8}</style>
<ellipse fill="#98ac49" stroke="black" cx="689.37" cy="-651.47" rx="38.03" ry="18"/>
<text text-anchor="middle" x="689.37" y="-648.97" font-family="Helvetica,sans-Serif" font-size="10.00" fill="#000000">Fnx.isTest</text>
</g>
<!-- Fnx_isTest&#45;&gt;Fnx_QMake -->
<g id="edge25" class="edge">
<title>Fnx_isTest&#45;&gt;Fnx_QMake</title><style>.edge>path:hover{stroke-width:8}</style>
<path fill="none" stroke="black" d="M686.81,-633.49C685.52,-624.87 683.91,-614.18 682.45,-604.44"/>
<polygon fill="#98ac49" stroke="black" points="685.89,-603.77 680.94,-594.4 678.97,-604.81 685.89,-603.77"/>
</g>
<!-- Fnx_tools -->
<g id="node8" class="node">
<title>Fnx_tools</title><style>.edge>path:hover{stroke-width:8}</style>
<ellipse fill="#a2b653" stroke="black" cx="685.37" cy="-723.47" rx="36.49" ry="18"/>
<text text-anchor="middle" x="685.37" y="-720.97" font-family="Helvetica,sans-Serif" font-size="10.00" fill="#000000">Fnx.tools</text>
</g>
<!-- Fnx_tools&#45;&gt;Fnx_isTest -->
<g id="edge26" class="edge">
<title>Fnx_tools&#45;&gt;Fnx_isTest</title><style>.edge>path:hover{stroke-width:8}</style>
<path fill="none" stroke="black" d="M686.35,-705.17C686.8,-697.45 687.33,-688.18 687.82,-679.58"/>
<polygon fill="#a2b653" stroke="black" points="691.31,-679.76 688.39,-669.57 684.32,-679.36 691.31,-679.76"/>
</g>
<!-- QLib -->
<g id="node10" class="node">
<title>QLib</title><style>.edge>path:hover{stroke-width:8}</style>
<ellipse fill="#106df9" stroke="black" cx="917.37" cy="-723.47" rx="27" ry="18"/>
<text text-anchor="middle" x="917.37" y="-720.97" font-family="Helvetica,sans-Serif" font-size="10.00" fill="#ffffff">QLib</text>
</g>
<!-- QLib&#45;&gt;Fnx_QMake -->
<g id="edge27" class="edge">
<title>QLib&#45;&gt;Fnx_QMake</title><style>.edge>path:hover{stroke-width:8}</style>
<path fill="none" stroke="black" d="M906.42,-706.7C895.89,-692 879.13,-669.8 862.37,-652.47"/>
<path fill="none" stroke="black" d="M862.37,-650.47C857.06,-644.99 770.7,-611.93 718.2,-592.16"/>
<polygon fill="#106df9" stroke="black" points="719.41,-588.87 708.82,-588.63 716.95,-595.42 719.41,-588.87"/>
</g>
<!-- QLib&#45;&gt;Projects_ACTIVE_myPyQt_QLib_QFrames_QElements -->
<g id="edge28" class="edge">
<title>QLib&#45;&gt;Projects_ACTIVE_myPyQt_QLib_QFrames_QElements</title><style>.edge>path:hover{stroke-width:8}</style>
<path fill="none" stroke="black" d="M862.37,-650.47C813.1,-599.55 834.69,-556.28 862.37,-491.05"/>
</g>
<!-- QLib_QBases -->
<g id="node11" class="node">
<title>QLib_QBases</title><style>.edge>path:hover{stroke-width:8}</style>
<ellipse fill="#4778c2" stroke="black" cx="864.37" cy="-265.09" rx="45.83" ry="18"/>
<text text-anchor="middle" x="864.37" y="-262.59" font-family="Helvetica,sans-Serif" font-size="10.00" fill="#ffffff">QLib.QBases</text>
</g>
<!-- QLib_QBases&#45;&gt;Projects_ACTIVE_myPyQt_QLib_QFrames_QElements -->
<g id="edge29" class="edge">
<title>QLib_QBases&#45;&gt;Projects_ACTIVE_myPyQt_QLib_QFrames_QElements</title><style>.edge>path:hover{stroke-width:8}</style>
<path fill="none" stroke="black" d="M839.73,-249.8C815.9,-235.05 784.22,-212.5 790.37,-200.1"/>
</g>
<!-- QLib_QBases_QLayout&#45;&gt;QLib_QBases_QWidget -->
<g id="edge30" class="edge">
<title>QLib_QBases_QLayout&#45;&gt;QLib_QBases_QWidget</title><style>.edge>path:hover{stroke-width:8}</style>
<path fill="none" stroke="black" d="M512.47,-339.67C518.61,-336.26 525.11,-332.89 531.37,-330.08 577.77,-309.2 633.14,-291.22 671.91,-279.68"/>
<polygon fill="#345079" stroke="black" points="673.29,-282.92 681.89,-276.74 671.31,-276.21 673.29,-282.92"/>
</g>
<!-- QLib_QBases_QWidget&#45;&gt;Projects_ACTIVE_myPyQt_QLib_QFrames_QElements -->
<g id="edge31" class="edge">
<title>QLib_QBases_QWidget&#45;&gt;Projects_ACTIVE_myPyQt_QLib_QFrames_QElements</title><style>.edge>path:hover{stroke-width:8}</style>
<path fill="none" stroke="black" d="M750.49,-244.64C765.13,-233.47 781.45,-218.1 790.37,-200.1"/>
</g>
<!-- QLib_QElements -->
<g id="node14" class="node">
<title>QLib_QElements</title><style>.edge>path:hover{stroke-width:8}</style>
<ellipse fill="#4778c2" stroke="black" cx="984.37" cy="-265.09" rx="55.85" ry="18"/>
<text text-anchor="middle" x="984.37" y="-262.59" font-family="Helvetica,sans-Serif" font-size="10.00" fill="#ffffff">QLib.QElements</text>
</g>
<!-- QLib_QElements&#45;&gt;Projects_ACTIVE_myPyQt_QLib_QFrames_QElements -->
<g id="edge32" class="edge">
<title>QLib_QElements&#45;&gt;Projects_ACTIVE_myPyQt_QLib_QFrames_QElements</title><style>.edge>path:hover{stroke-width:8}</style>
<path fill="none" stroke="black" d="M953.62,-249.84C942.91,-245.15 930.72,-240.1 919.37,-236.1 863.24,-216.28 763.94,-253.43 790.37,-200.1"/>
</g>
<!-- QLib_QElements_QApplication&#45;&gt;Projects_ACTIVE_myPyQt_QLib_QFrames_QElements -->
<g id="edge33" class="edge">
<title>QLib_QElements_QApplication&#45;&gt;Projects_ACTIVE_myPyQt_QLib_QFrames_QElements</title><style>.edge>path:hover{stroke-width:8}</style>
<path fill="none" stroke="black" d="M650.73,-351.62C699.75,-342.36 767.54,-319.97 790.37,-266.09"/>
<path fill="none" stroke="black" d="M790.37,-264.09C801.46,-237.9 777.74,-225.58 790.37,-200.1"/>
</g>
<!-- QLib_QElements_QTree&#45;&gt;Projects_ACTIVE_myPyQt_QLib_QFrames_QElements -->
<g id="edge34" class="edge">
<title>QLib_QElements_QTree&#45;&gt;Projects_ACTIVE_myPyQt_QLib_QFrames_QElements</title><style>.edge>path:hover{stroke-width:8}</style>
<path fill="none" stroke="black" d="M100.52,-331.47C115.29,-311.41 137.68,-284.32 162.37,-266.09"/>
<path fill="none" stroke="black" d="M162.37,-264.09C218.78,-222.42 759.23,-262.94 790.37,-200.1"/>
<path fill="none" stroke="black" d="M790.37,-199.1C805.57,-168.41 805.51,-129.85 801.68,-99.05"/>
<polygon fill="#314b72" stroke="black" points="805.12,-98.34 800.26,-88.92 798.19,-99.31 805.12,-98.34"/>
</g>
<!-- QLib_QStatic -->
<g id="node17" class="node">
<title>QLib_QStatic</title><style>.edge>path:hover{stroke-width:8}</style>
<ellipse fill="#106df9" stroke="black" cx="453.37" cy="-723.47" rx="45.15" ry="18"/>
<text text-anchor="middle" x="453.37" y="-720.97" font-family="Helvetica,sans-Serif" font-size="10.00" fill="#ffffff">QLib.QStatic</text>
</g>
<!-- QLib_QStatic&#45;&gt;Fnx_QMake -->
<g id="edge35" class="edge">
<title>QLib_QStatic&#45;&gt;Fnx_QMake</title><style>.edge>path:hover{stroke-width:8}</style>
<path fill="none" stroke="black" d="M493.64,-715.07C531.53,-706.19 587.65,-687.84 623.37,-652.47"/>
<path fill="none" stroke="black" d="M623.37,-650.47C638.05,-635.93 652.01,-617.27 662.19,-602.43"/>
<polygon fill="#106df9" stroke="black" points="665.34,-604.01 668.01,-593.76 659.53,-600.11 665.34,-604.01"/>
</g>
<!-- QLib_QStatic&#45;&gt;QLib_QBases_QLayout -->
<g id="edge36" class="edge">
<title>QLib_QStatic&#45;&gt;QLib_QBases_QLayout</title><style>.edge>path:hover{stroke-width:8}</style>
<path fill="none" stroke="black" d="M471.37,-650.47C453.97,-601.92 505.14,-595.3 537.37,-555.04 561.54,-524.84 604.47,-528.88 596.37,-491.05"/>
<path fill="none" stroke="black" d="M596.37,-489.05C579.05,-433.59 497.46,-481.17 482.37,-425.06"/>
</g>
<!-- QLib_QStatic&#45;&gt;QLib_QBases_QWidget -->
<g id="edge37" class="edge">
<title>QLib_QStatic&#45;&gt;QLib_QBases_QWidget</title><style>.edge>path:hover{stroke-width:8}</style>
<path fill="none" stroke="black" d="M462.8,-705.69C469.58,-691.46 476.67,-670.53 471.37,-652.47"/>
<path fill="none" stroke="black" d="M471.37,-650.47C447.39,-568.82 343.17,-661.72 287.37,-597.47 256.04,-561.41 265.13,-538.27 272.37,-491.05"/>
<path fill="none" stroke="black" d="M272.37,-489.05C280.07,-429.26 267.49,-397.99 314.37,-360.07"/>
</g>
<!-- QLib_QStatic&#45;&gt;QLib_QElements_QApplication -->
<g id="edge38" class="edge">
<title>QLib_QStatic&#45;&gt;QLib_QElements_QApplication</title><style>.edge>path:hover{stroke-width:8}</style>
<path fill="none" stroke="black" d="M471.62,-706.87C506.67,-675.55 582.43,-600.96 610.37,-519.04 623.98,-479.12 616.45,-430.45 608.11,-397.57"/>
<polygon fill="#106df9" stroke="black" points="611.49,-396.65 605.52,-387.89 604.72,-398.46 611.49,-396.65"/>
</g>
<!-- QLib_QStatic&#45;&gt;QLib_QElements_QTree -->
<g id="edge39" class="edge">
<title>QLib_QStatic&#45;&gt;QLib_QElements_QTree</title><style>.edge>path:hover{stroke-width:8}</style>
<path fill="none" stroke="black" d="M419.72,-711.29C342.38,-685.29 157.18,-621.15 139.37,-597.47 93.07,-535.95 152.43,-495.95 122.37,-425.06"/>
<path fill="none" stroke="black" d="M122.37,-424.06C117.86,-414.22 112.1,-404.07 106.36,-394.83"/>
<polygon fill="#106df9" stroke="black" points="109.24,-392.84 100.91,-386.29 103.34,-396.6 109.24,-392.84"/>
</g>
<!-- QLib_QStatic_PyQtX -->
<g id="node18" class="node">
<title>QLib_QStatic_PyQtX</title><style>.edge>path:hover{stroke-width:8}</style>
<ellipse fill="#3a69b0" stroke="black" cx="661.37" cy="-900.44" rx="38.78" ry="28.98"/>
<text text-anchor="middle" x="661.37" y="-908.94" font-family="Helvetica,sans-Serif" font-size="10.00" fill="#ffffff">QLib.</text>
<text text-anchor="middle" x="661.37" y="-897.94" font-family="Helvetica,sans-Serif" font-size="10.00" fill="#ffffff">QStatic.</text>
<text text-anchor="middle" x="661.37" y="-886.94" font-family="Helvetica,sans-Serif" font-size="10.00" fill="#ffffff">PyQtX</text>
</g>
<!-- QLib_QStatic_PyQtX&#45;&gt;Fnx_QMake -->
<g id="edge40" class="edge">
<title>QLib_QStatic_PyQtX&#45;&gt;Fnx_QMake</title><style>.edge>path:hover{stroke-width:8}</style>
<path fill="none" stroke="black" d="M692.66,-882.81C734.95,-858.34 808.48,-808.19 838.37,-741.47 857.09,-699.66 815.54,-687.79 786.37,-652.47"/>
</g>
<!-- QLib_QStatic_QtLibs -->
<g id="node19" class="node">
<title>QLib_QStatic_QtLibs</title><style>.edge>path:hover{stroke-width:8}</style>
<ellipse fill="#1762d3" stroke="black" cx="661.37" cy="-806.46" rx="38.78" ry="28.98"/>
<text text-anchor="middle" x="661.37" y="-814.96" font-family="Helvetica,sans-Serif" font-size="10.00" fill="#ffffff">QLib.</text>
<text text-anchor="middle" x="661.37" y="-803.96" font-family="Helvetica,sans-Serif" font-size="10.00" fill="#ffffff">QStatic.</text>
<text text-anchor="middle" x="661.37" y="-792.96" font-family="Helvetica,sans-Serif" font-size="10.00" fill="#ffffff">QtLibs</text>
</g>
<!-- QLib_QStatic_PyQtX&#45;&gt;QLib_QStatic_QtLibs -->
<g id="edge41" class="edge">
<title>QLib_QStatic_PyQtX&#45;&gt;QLib_QStatic_QtLibs</title><style>.edge>path:hover{stroke-width:8}</style>
<path fill="none" stroke="black" d="M661.37,-871.35C661.37,-863.31 661.37,-854.41 661.37,-845.86"/>
<polygon fill="#3a69b0" stroke="black" points="664.87,-845.7 661.37,-835.7 657.87,-845.7 664.87,-845.7"/>
</g>
<!-- QLib_QStatic_QtLibs&#45;&gt;Fnx_QMake -->
<g id="edge42" class="edge">
<title>QLib_QStatic_QtLibs&#45;&gt;Fnx_QMake</title><style>.edge>path:hover{stroke-width:8}</style>
<path fill="none" stroke="black" d="M699.69,-800.22C740.76,-792.19 802.93,-772.35 824.37,-724.47"/>
<path fill="none" stroke="black" d="M824.37,-722.47C838.83,-690.16 808.91,-679.76 786.37,-652.47"/>
</g>
<!-- QLib_QStatic_QtLibs&#45;&gt;QLib_QBases_QLayout -->
<g id="edge43" class="edge">
<title>QLib_QStatic_QtLibs&#45;&gt;QLib_QBases_QLayout</title><style>.edge>path:hover{stroke-width:8}</style>
<path fill="none" stroke="black" d="M624.98,-796.19C597.77,-787.13 562.44,-770.39 545.37,-741.47 487.62,-643.66 630.22,-599.47 596.37,-491.05"/>
</g>
<!-- QLib_QStatic_QtLibs&#45;&gt;QLib_QBases_QWidget -->
<g id="edge44" class="edge">
<title>QLib_QStatic_QtLibs&#45;&gt;QLib_QBases_QWidget</title><style>.edge>path:hover{stroke-width:8}</style>
<path fill="none" stroke="black" d="M622.3,-804.21C486.67,-798.82 44.37,-772.07 44.37,-652.47 44.37,-652.47 44.37,-652.47 44.37,-575.26 44.37,-508.5 45.38,-491.81 44.37,-425.06"/>
<path fill="none" stroke="black" d="M44.37,-424.06C43.59,-390.05 -9.15,-392.08 2.37,-360.07"/>
<path fill="none" stroke="black" d="M2.37,-358.07C7.46,-343.92 8.41,-337.72 21.37,-330.08 76.77,-297.4 516.31,-275.09 668.62,-268.28"/>
<polygon fill="#1762d3" stroke="black" points="668.82,-271.78 678.65,-267.84 668.51,-264.78 668.82,-271.78"/>
</g>
<!-- QLib_QStatic_QtLibs&#45;&gt;QLib_QElements_QApplication -->
<g id="edge45" class="edge">
<title>QLib_QStatic_QtLibs&#45;&gt;QLib_QElements_QApplication</title><style>.edge>path:hover{stroke-width:8}</style>
<path fill="none" stroke="black" d="M824.37,-722.47C866.95,-627.34 757.58,-591.23 786.37,-491.05"/>
</g>
<!-- QLib_QStatic_QtLibs&#45;&gt;QLib_QElements_QTree -->
<g id="edge46" class="edge">
<title>QLib_QStatic_QtLibs&#45;&gt;QLib_QElements_QTree</title><style>.edge>path:hover{stroke-width:8}</style>
<path fill="none" stroke="black" d="M44.37,-424.06C44.2,-413.39 48.1,-402.94 53.46,-393.69"/>
<polygon fill="#1762d3" stroke="black" points="56.45,-395.5 58.95,-385.21 50.58,-391.69 56.45,-395.5"/>
</g>
<!-- QLib_QStatic_QtModules -->
<g id="node20" class="node">
<title>QLib_QStatic_QtModules</title><style>.edge>path:hover{stroke-width:8}</style>
<ellipse fill="#537bb6" stroke="black" cx="661.37" cy="-994.43" rx="48.58" ry="28.98"/>
<text text-anchor="middle" x="661.37" y="-1002.93" font-family="Helvetica,sans-Serif" font-size="10.00" fill="#ffffff">QLib.</text>
<text text-anchor="middle" x="661.37" y="-991.93" font-family="Helvetica,sans-Serif" font-size="10.00" fill="#ffffff">QStatic.</text>
<text text-anchor="middle" x="661.37" y="-980.93" font-family="Helvetica,sans-Serif" font-size="10.00" fill="#ffffff">QtModules</text>
</g>
<!-- QLib_QStatic_QtModules&#45;&gt;QLib_QStatic_PyQtX -->
<g id="edge47" class="edge">
<title>QLib_QStatic_QtModules&#45;&gt;QLib_QStatic_PyQtX</title><style>.edge>path:hover{stroke-width:8}</style>
<path fill="none" stroke="black" d="M661.37,-965.33C661.37,-957.29 661.37,-948.39 661.37,-939.85"/>
<polygon fill="#537bb6" stroke="black" points="664.87,-939.69 661.37,-929.69 657.87,-939.69 664.87,-939.69"/>
</g>
<!-- QLib_QStatic_skel -->
<g id="node21" class="node">
<title>QLib_QStatic_skel</title><style>.edge>path:hover{stroke-width:8}</style>
<ellipse fill="#2f73db" stroke="black" cx="339.37" cy="-490.05" rx="38.78" ry="28.98"/>
<text text-anchor="middle" x="339.37" y="-498.55" font-family="Helvetica,sans-Serif" font-size="10.00" fill="#ffffff">QLib.</text>
<text text-anchor="middle" x="339.37" y="-487.55" font-family="Helvetica,sans-Serif" font-size="10.00" fill="#ffffff">QStatic.</text>
<text text-anchor="middle" x="339.37" y="-476.55" font-family="Helvetica,sans-Serif" font-size="10.00" fill="#ffffff">skel</text>
</g>
<!-- QLib_QStatic_skel&#45;&gt;QLib_QBases_QLayout -->
<g id="edge48" class="edge">
<title>QLib_QStatic_skel&#45;&gt;QLib_QBases_QLayout</title><style>.edge>path:hover{stroke-width:8}</style>
<path fill="none" stroke="black" d="M352.37,-424.06C371.68,-396.93 405.79,-380.75 434.22,-371.45"/>
<polygon fill="#2f73db" stroke="black" points="435.48,-374.72 444.01,-368.43 433.42,-368.03 435.48,-374.72"/>
</g>
<!-- QLib_QStatic_skel&#45;&gt;QLib_QBases_QWidget -->
<g id="edge49" class="edge">
<title>QLib_QStatic_skel&#45;&gt;QLib_QBases_QWidget</title><style>.edge>path:hover{stroke-width:8}</style>
<path fill="none" stroke="black" d="M340.09,-460.91C341.59,-448.94 345,-435.4 352.37,-425.06"/>
<path fill="none" stroke="black" d="M352.37,-424.06C371.55,-397.12 289.38,-381.75 314.37,-360.07"/>
</g>
<!-- QLib_QStatic_skel&#45;&gt;QLib_QElements_QApplication -->
<g id="edge50" class="edge">
<title>QLib_QStatic_skel&#45;&gt;QLib_QElements_QApplication</title><style>.edge>path:hover{stroke-width:8}</style>
<path fill="none" stroke="black" d="M352.37,-424.06C399.44,-357.96 453.9,-412.24 531.37,-388.06 536.23,-386.54 541.22,-384.78 546.17,-382.9"/>
<polygon fill="#2f73db" stroke="black" points="547.59,-386.1 555.59,-379.16 545.01,-379.6 547.59,-386.1"/>
</g>
<!-- QLib_QStatic_skel&#45;&gt;QLib_QElements_QTree -->
<g id="edge51" class="edge">
<title>QLib_QStatic_skel&#45;&gt;QLib_QElements_QTree</title><style>.edge>path:hover{stroke-width:8}</style>
<path fill="none" stroke="black" d="M307.59,-473.11C262.87,-450.66 181.05,-409.6 129.3,-383.63"/>
<polygon fill="#2f73db" stroke="black" points="130.83,-380.48 120.32,-379.12 127.69,-386.73 130.83,-380.48"/>
</g>
<!-- assets -->
<g id="node22" class="node">
<title>assets</title><style>.edge>path:hover{stroke-width:8}</style>
<ellipse fill="#a253b6" stroke="black" cx="768.37" cy="-723.47" rx="28.01" ry="18"/>
<text text-anchor="middle" x="768.37" y="-720.97" font-family="Helvetica,sans-Serif" font-size="10.00" fill="#ffffff">assets</text>
</g>
<!-- assets&#45;&gt;Fnx_QMake -->
<g id="edge52" class="edge">
<title>assets&#45;&gt;Fnx_QMake</title><style>.edge>path:hover{stroke-width:8}</style>
<path fill="none" stroke="black" d="M779.45,-706.85C788.92,-691.42 799.15,-667.95 786.37,-652.47"/>
<path fill="none" stroke="black" d="M786.37,-650.47C766.75,-626.73 737.51,-607.55 714.4,-594.79"/>
<polygon fill="#a253b6" stroke="black" points="716.03,-591.69 705.56,-590.05 712.72,-597.86 716.03,-591.69"/>
</g>
<!-- assets_ico -->
<g id="node23" class="node">
<title>assets_ico</title><style>.edge>path:hover{stroke-width:8}</style>
<ellipse fill="#a253b6" stroke="black" cx="592.37" cy="-723.47" rx="38.03" ry="18"/>
<text text-anchor="middle" x="592.37" y="-720.97" font-family="Helvetica,sans-Serif" font-size="10.00" fill="#ffffff">assets.ico</text>
</g>
<!-- assets_ico&#45;&gt;Fnx_QMake -->
<g id="edge53" class="edge">
<title>assets_ico&#45;&gt;Fnx_QMake</title><style>.edge>path:hover{stroke-width:8}</style>
<path fill="none" stroke="black" d="M596.12,-705.45C600.34,-689.86 608.63,-667.06 623.37,-652.47"/>
</g>
</g>
</svg>
